<mxfile host="app.diagrams.net" modified="2020-04-26T00:52:02.864Z" agent="5.0 (X11; Fedora; Linux x86_64) AppleWebKit/537.36 (KHTML, like Gecko) Chrome/79.0.3945.117 Safari/537.36" etag="IXJ7gLTjEjoCKsgtz9vN" version="12.9.11" type="github">
  <diagram id="DhYAP44AMEROetXgmws2" name="Page-1">
    <mxGraphModel dx="868" dy="460" grid="1" gridSize="10" guides="1" tooltips="1" connect="1" arrows="1" fold="1" page="1" pageScale="1" pageWidth="850" pageHeight="1100" math="0" shadow="0">
      <root>
        <mxCell id="0" />
        <mxCell id="1" parent="0" />
        <mxCell id="JBhu5v7OuL4f8WupDWOQ-1" value="home" style="whiteSpace=wrap;html=1;aspect=fixed;" parent="1" vertex="1">
          <mxGeometry x="305" y="30" width="70" height="70" as="geometry" />
        </mxCell>
        <mxCell id="oV5nwdRXDnXHRsNrsrDA-2" value="é cadastrado?" style="rhombus;whiteSpace=wrap;html=1;" parent="1" vertex="1">
          <mxGeometry x="285" y="140" width="110" height="100" as="geometry" />
        </mxCell>
        <mxCell id="oV5nwdRXDnXHRsNrsrDA-3" value="" style="endArrow=none;html=1;entryX=0.5;entryY=1;entryDx=0;entryDy=0;exitX=0.5;exitY=0;exitDx=0;exitDy=0;" parent="1" source="oV5nwdRXDnXHRsNrsrDA-2" target="JBhu5v7OuL4f8WupDWOQ-1" edge="1">
          <mxGeometry width="50" height="50" relative="1" as="geometry">
            <mxPoint x="400" y="260" as="sourcePoint" />
            <mxPoint x="450" y="210" as="targetPoint" />
          </mxGeometry>
        </mxCell>
        <mxCell id="oV5nwdRXDnXHRsNrsrDA-4" value="Fazer login" style="whiteSpace=wrap;html=1;aspect=fixed;" parent="1" vertex="1">
          <mxGeometry x="310" y="290" width="60" height="60" as="geometry" />
        </mxCell>
        <mxCell id="oV5nwdRXDnXHRsNrsrDA-5" value="" style="endArrow=none;html=1;exitX=0.5;exitY=0;exitDx=0;exitDy=0;entryX=0.5;entryY=1;entryDx=0;entryDy=0;fontStyle=1" parent="1" source="oV5nwdRXDnXHRsNrsrDA-4" target="oV5nwdRXDnXHRsNrsrDA-2" edge="1">
          <mxGeometry width="50" height="50" relative="1" as="geometry">
            <mxPoint x="400" y="260" as="sourcePoint" />
            <mxPoint x="340" y="240" as="targetPoint" />
          </mxGeometry>
        </mxCell>
        <mxCell id="oV5nwdRXDnXHRsNrsrDA-6" value="&lt;b&gt;Sim&lt;/b&gt;" style="edgeLabel;html=1;align=center;verticalAlign=middle;resizable=0;points=[];" parent="oV5nwdRXDnXHRsNrsrDA-5" vertex="1" connectable="0">
          <mxGeometry x="0.4" y="3" relative="1" as="geometry">
            <mxPoint x="3" y="12" as="offset" />
          </mxGeometry>
        </mxCell>
        <mxCell id="oV5nwdRXDnXHRsNrsrDA-7" value="" style="endArrow=none;html=1;entryX=0;entryY=0.5;entryDx=0;entryDy=0;" parent="1" edge="1" target="oV5nwdRXDnXHRsNrsrDA-2">
          <mxGeometry width="50" height="50" relative="1" as="geometry">
            <mxPoint x="230" y="190" as="sourcePoint" />
            <mxPoint x="315" y="190" as="targetPoint" />
            <Array as="points" />
          </mxGeometry>
        </mxCell>
        <mxCell id="oV5nwdRXDnXHRsNrsrDA-9" value="&lt;b&gt;Não&lt;/b&gt;" style="edgeLabel;html=1;align=center;verticalAlign=middle;resizable=0;points=[];" parent="oV5nwdRXDnXHRsNrsrDA-7" vertex="1" connectable="0">
          <mxGeometry x="-0.6235" relative="1" as="geometry">
            <mxPoint x="24" as="offset" />
          </mxGeometry>
        </mxCell>
        <mxCell id="oV5nwdRXDnXHRsNrsrDA-8" value="cadastro" style="whiteSpace=wrap;html=1;aspect=fixed;" parent="1" vertex="1">
          <mxGeometry x="170" y="155" width="70" height="70" as="geometry" />
        </mxCell>
        <mxCell id="oV5nwdRXDnXHRsNrsrDA-10" value="" style="endArrow=none;html=1;exitX=0.5;exitY=1;exitDx=0;exitDy=0;" parent="1" source="oV5nwdRXDnXHRsNrsrDA-4" target="oV5nwdRXDnXHRsNrsrDA-13" edge="1">
          <mxGeometry width="50" height="50" relative="1" as="geometry">
            <mxPoint x="400" y="370" as="sourcePoint" />
            <mxPoint x="340" y="420" as="targetPoint" />
          </mxGeometry>
        </mxCell>
        <mxCell id="oV5nwdRXDnXHRsNrsrDA-11" value="" style="endArrow=none;html=1;entryX=0.5;entryY=1;entryDx=0;entryDy=0;exitX=0.031;exitY=0.617;exitDx=0;exitDy=0;exitPerimeter=0;" parent="1" source="oV5nwdRXDnXHRsNrsrDA-13" target="oV5nwdRXDnXHRsNrsrDA-8" edge="1">
          <mxGeometry width="50" height="50" relative="1" as="geometry">
            <mxPoint x="175" y="400" as="sourcePoint" />
            <mxPoint x="450" y="160" as="targetPoint" />
            <Array as="points">
              <mxPoint x="205" y="427" />
            </Array>
          </mxGeometry>
        </mxCell>
        <mxCell id="oV5nwdRXDnXHRsNrsrDA-13" value="home" style="whiteSpace=wrap;html=1;aspect=fixed;" parent="1" vertex="1">
          <mxGeometry x="307.97" y="390" width="64.05" height="60" as="geometry" />
        </mxCell>
        <mxCell id="oV5nwdRXDnXHRsNrsrDA-16" value="Ver serviços" style="whiteSpace=wrap;html=1;aspect=fixed;" parent="1" vertex="1">
          <mxGeometry x="425" y="360" width="64.05" height="60" as="geometry" />
        </mxCell>
        <mxCell id="oV5nwdRXDnXHRsNrsrDA-17" value="Ver/Editar&lt;br&gt;Perfil" style="whiteSpace=wrap;html=1;aspect=fixed;" parent="1" vertex="1">
          <mxGeometry x="425" y="450" width="64.05" height="60" as="geometry" />
        </mxCell>
        <mxCell id="oV5nwdRXDnXHRsNrsrDA-18" value="Ver produtos" style="whiteSpace=wrap;html=1;aspect=fixed;" parent="1" vertex="1">
          <mxGeometry x="425" y="280" width="64.05" height="60" as="geometry" />
        </mxCell>
        <mxCell id="oV5nwdRXDnXHRsNrsrDA-19" value="" style="endArrow=classic;startArrow=classic;html=1;exitX=1;exitY=0.5;exitDx=0;exitDy=0;entryX=0;entryY=0.5;entryDx=0;entryDy=0;" parent="1" source="oV5nwdRXDnXHRsNrsrDA-13" target="oV5nwdRXDnXHRsNrsrDA-18" edge="1">
          <mxGeometry width="50" height="50" relative="1" as="geometry">
            <mxPoint x="400" y="420" as="sourcePoint" />
            <mxPoint x="450" y="370" as="targetPoint" />
            <Array as="points" />
          </mxGeometry>
        </mxCell>
        <mxCell id="oV5nwdRXDnXHRsNrsrDA-20" value="" style="endArrow=classic;startArrow=classic;html=1;entryX=0;entryY=0.5;entryDx=0;entryDy=0;exitX=1;exitY=0.5;exitDx=0;exitDy=0;" parent="1" source="oV5nwdRXDnXHRsNrsrDA-13" target="oV5nwdRXDnXHRsNrsrDA-16" edge="1">
          <mxGeometry width="50" height="50" relative="1" as="geometry">
            <mxPoint x="400" y="420" as="sourcePoint" />
            <mxPoint x="450" y="370" as="targetPoint" />
          </mxGeometry>
        </mxCell>
        <mxCell id="oV5nwdRXDnXHRsNrsrDA-21" value="" style="endArrow=classic;startArrow=classic;html=1;entryX=0;entryY=0.5;entryDx=0;entryDy=0;exitX=1;exitY=0.5;exitDx=0;exitDy=0;" parent="1" source="oV5nwdRXDnXHRsNrsrDA-13" target="oV5nwdRXDnXHRsNrsrDA-17" edge="1">
          <mxGeometry width="50" height="50" relative="1" as="geometry">
            <mxPoint x="400" y="420" as="sourcePoint" />
            <mxPoint x="450" y="370" as="targetPoint" />
          </mxGeometry>
        </mxCell>
        <mxCell id="oV5nwdRXDnXHRsNrsrDA-22" value="" style="endArrow=classic;startArrow=classic;html=1;entryX=1;entryY=0.5;entryDx=0;entryDy=0;" parent="1" target="oV5nwdRXDnXHRsNrsrDA-18" edge="1">
          <mxGeometry width="50" height="50" relative="1" as="geometry">
            <mxPoint x="520" y="310" as="sourcePoint" />
            <mxPoint x="450" y="320" as="targetPoint" />
          </mxGeometry>
        </mxCell>
        <mxCell id="oV5nwdRXDnXHRsNrsrDA-23" value="Adicionar produto carrinho&lt;br&gt;ou ocmprar" style="whiteSpace=wrap;html=1;aspect=fixed;" parent="1" vertex="1">
          <mxGeometry x="520" y="280" width="64.05" height="60" as="geometry" />
        </mxCell>
        <mxCell id="oV5nwdRXDnXHRsNrsrDA-25" value="" style="endArrow=classic;startArrow=classic;html=1;entryX=1;entryY=0.5;entryDx=0;entryDy=0;exitX=0;exitY=0.5;exitDx=0;exitDy=0;" parent="1" source="oV5nwdRXDnXHRsNrsrDA-27" target="oV5nwdRXDnXHRsNrsrDA-16" edge="1">
          <mxGeometry width="50" height="50" relative="1" as="geometry">
            <mxPoint x="520" y="390" as="sourcePoint" />
            <mxPoint x="499.04999999999995" y="320" as="targetPoint" />
          </mxGeometry>
        </mxCell>
        <mxCell id="oV5nwdRXDnXHRsNrsrDA-26" value="Agendar Serviço" style="whiteSpace=wrap;html=1;aspect=fixed;" parent="1" vertex="1">
          <mxGeometry x="640" y="360" width="64.05" height="60" as="geometry" />
        </mxCell>
        <mxCell id="oV5nwdRXDnXHRsNrsrDA-39" style="edgeStyle=none;rounded=0;orthogonalLoop=1;jettySize=auto;html=1;exitX=0.5;exitY=1;exitDx=0;exitDy=0;entryX=1;entryY=0.5;entryDx=0;entryDy=0;" parent="1" source="oV5nwdRXDnXHRsNrsrDA-27" target="oV5nwdRXDnXHRsNrsrDA-32" edge="1">
          <mxGeometry relative="1" as="geometry">
            <mxPoint x="552" y="590" as="targetPoint" />
            <Array as="points">
              <mxPoint x="552" y="570" />
            </Array>
          </mxGeometry>
        </mxCell>
        <mxCell id="oV5nwdRXDnXHRsNrsrDA-40" value="&lt;b&gt;Não&lt;/b&gt;" style="edgeLabel;html=1;align=center;verticalAlign=middle;resizable=0;points=[];" parent="oV5nwdRXDnXHRsNrsrDA-39" vertex="1" connectable="0">
          <mxGeometry x="-0.0441" y="5" relative="1" as="geometry">
            <mxPoint as="offset" />
          </mxGeometry>
        </mxCell>
        <mxCell id="oV5nwdRXDnXHRsNrsrDA-27" value="Tem pet?" style="rhombus;whiteSpace=wrap;html=1;" parent="1" vertex="1">
          <mxGeometry x="512.03" y="350" width="80" height="80" as="geometry" />
        </mxCell>
        <mxCell id="oV5nwdRXDnXHRsNrsrDA-30" value="Sim" style="endArrow=classic;startArrow=classic;html=1;exitX=1;exitY=0.5;exitDx=0;exitDy=0;entryX=0;entryY=0.5;entryDx=0;entryDy=0;" parent="1" source="oV5nwdRXDnXHRsNrsrDA-27" target="oV5nwdRXDnXHRsNrsrDA-26" edge="1">
          <mxGeometry width="50" height="50" relative="1" as="geometry">
            <mxPoint x="530" y="390" as="sourcePoint" />
            <mxPoint x="640" y="380" as="targetPoint" />
            <Array as="points">
              <mxPoint x="600" y="390" />
            </Array>
          </mxGeometry>
        </mxCell>
        <mxCell id="oV5nwdRXDnXHRsNrsrDA-31" value="" style="endArrow=classic;startArrow=classic;html=1;entryX=0;entryY=0.5;entryDx=0;entryDy=0;" parent="1" target="oV5nwdRXDnXHRsNrsrDA-32" edge="1">
          <mxGeometry width="50" height="50" relative="1" as="geometry">
            <mxPoint x="370" y="430" as="sourcePoint" />
            <mxPoint x="410" y="570" as="targetPoint" />
          </mxGeometry>
        </mxCell>
        <mxCell id="oV5nwdRXDnXHRsNrsrDA-32" value="Ver/Add&lt;br&gt;pets" style="whiteSpace=wrap;html=1;aspect=fixed;" parent="1" vertex="1">
          <mxGeometry x="425" y="540" width="64.05" height="60" as="geometry" />
        </mxCell>
        <mxCell id="2PC65MKpnXGMtq4imcf4-3" value="Administrar&lt;br&gt;carrinho" style="whiteSpace=wrap;html=1;aspect=fixed;" vertex="1" parent="1">
          <mxGeometry x="425" y="620" width="64.05" height="60" as="geometry" />
        </mxCell>
        <mxCell id="2PC65MKpnXGMtq4imcf4-4" value="" style="endArrow=classic;startArrow=classic;html=1;entryX=0;entryY=0.5;entryDx=0;entryDy=0;exitX=1.078;exitY=0.65;exitDx=0;exitDy=0;exitPerimeter=0;" edge="1" parent="1" source="oV5nwdRXDnXHRsNrsrDA-13" target="2PC65MKpnXGMtq4imcf4-3">
          <mxGeometry width="50" height="50" relative="1" as="geometry">
            <mxPoint x="380" y="440" as="sourcePoint" />
            <mxPoint x="435" y="580" as="targetPoint" />
          </mxGeometry>
        </mxCell>
      </root>
    </mxGraphModel>
  </diagram>
</mxfile>
